HIERARCHY
ROOT Hips
{
	OFFSET	0.00	0.00	0.00
	CHANNELS 6 Xposition Yposition Zposition Zrotation Xrotation Yrotation
	JOINT LeftUpLeg
	{
		OFFSET	 0.126116	-0.014019	-0.065224
		CHANNELS 3 Zrotation Xrotation Yrotation
		JOINT LeftLeg
		{
			OFFSET	 0.000000	 0.000000	 0.569914
			CHANNELS 3 Zrotation Xrotation Yrotation
			JOINT LeftFoot
			{
				OFFSET	 0.000000	 0.000000	 0.544423
				CHANNELS 3 Zrotation Xrotation Yrotation
				JOINT LeftToeBase
				{
					OFFSET	 0.000000	 0.000000	 0.207117
					CHANNELS 3 Zrotation Xrotation Yrotation
					End Site
					{
						OFFSET	 0.000000	 0.000000	 0.207117
					}
				}
			}
		}
	}
	JOINT RightUpLeg
	{
		OFFSET	-0.124023	-0.008373	-0.065224
		CHANNELS 3 Zrotation Xrotation Yrotation
		JOINT RightLeg
		{
			OFFSET	 0.000000	 0.000000	 0.570047
			CHANNELS 3 Zrotation Xrotation Yrotation
			JOINT RightFoot
			{
				OFFSET	 0.000000	 0.000000	 0.544354
				CHANNELS 3 Zrotation Xrotation Yrotation
				JOINT RightToeBase
				{
					OFFSET	 0.000000	 0.000000	 0.207540
					CHANNELS 3 Zrotation Xrotation Yrotation
					End Site
					{
						OFFSET	 0.000000	 0.000000	 0.207540
					}
				}
			}
		}
	}
	JOINT Spine
	{
		OFFSET	 0.000184	-0.007763	 0.117403
		CHANNELS 3 Zrotation Xrotation Yrotation
		JOINT Spine1
		{
			OFFSET	 0.000000	 0.000000	 0.137269
			CHANNELS 3 Zrotation Xrotation Yrotation
			JOINT Spine2
			{
				OFFSET	 0.000000	 0.000000	 0.156879
				CHANNELS 3 Zrotation Xrotation Yrotation
				JOINT LeftShoulder
				{
					OFFSET	 0.080501	-0.002496	 0.160144
					CHANNELS 3 Zrotation Xrotation Yrotation
					JOINT LeftArm
					{
						OFFSET	 0.000000	 0.000000	 0.164363
						CHANNELS 3 Zrotation Xrotation Yrotation
						JOINT LeftForeArm
						{
							OFFSET	 0.000000	 0.000000	 0.364576
							CHANNELS 3 Zrotation Xrotation Yrotation
							JOINT LeftHand
							{
								OFFSET	 0.000000	 0.000000	 0.360812
								CHANNELS 3 Zrotation Xrotation Yrotation
								JOINT LeftHandIndex1
								{
									OFFSET	 0.000000	 0.000000	 0.086006
									CHANNELS 3 Zrotation Xrotation Yrotation
									JOINT LeftHandIndex2
									{
										OFFSET	 0.000000	 0.000000	 0.047236
										CHANNELS 3 Zrotation Xrotation Yrotation
										JOINT LeftHandIndex3
										{
											OFFSET	-0.004284	-0.000551	 0.038166
											CHANNELS 3 Zrotation Xrotation Yrotation
											End Site
											{
												OFFSET	-0.004284	-0.000551	 0.038166
											}
										}
									}
								}
							}
						}
					}
				}
				JOINT Neck
				{
					OFFSET	 0.000000	 0.000000	 0.176489
					CHANNELS 3 Zrotation Xrotation Yrotation
					JOINT Head
					{
						OFFSET	 0.000000	-0.001747	 0.077940
						CHANNELS 3 Zrotation Xrotation Yrotation
						End Site
						{
							OFFSET	 0.000000	-0.001747	 0.077940
						}
					}
				}
				JOINT RightShoulder
				{
					OFFSET	-0.080363	 0.000306	 0.159706
					CHANNELS 3 Zrotation Xrotation Yrotation
					JOINT RightArm
					{
						OFFSET	 0.000000	 0.000000	 0.164196
						CHANNELS 3 Zrotation Xrotation Yrotation
						JOINT RightForeArm
						{
							OFFSET	 0.000000	 0.000000	 0.365611
							CHANNELS 3 Zrotation Xrotation Yrotation
							JOINT RightHand
							{
								OFFSET	 0.000000	 0.000000	 0.360648
								CHANNELS 3 Zrotation Xrotation Yrotation
								JOINT RightHandIndex1
								{
									OFFSET	 0.000000	 0.000000	 0.069977
									CHANNELS 3 Zrotation Xrotation Yrotation
									JOINT RightHandIndex2
									{
										OFFSET	 0.000000	 0.000000	 0.052305
										CHANNELS 3 Zrotation Xrotation Yrotation
										JOINT RightHandIndex3
										{
											OFFSET	 0.009002	-0.000782	 0.042196
											CHANNELS 3 Zrotation Xrotation Yrotation
											End Site
											{
												OFFSET	 0.009002	-0.000782	 0.042196
											}
										}
									}
								}
							}
						}
					}
				}
			}
		}
	}
}
MOTION
Frames:    5
Frame Time: 0.03333334
-0.000408	 0.047407	 1.275143	-0.065499	 2.892991	 0.501254	 13.842490	-6.543717	 177.405700	 2.177058	-12.277540	 0.551885	-0.111547	 69.903140	 0.034102	-2.385833	 28.452750	 0.000004	-6.349005	-6.051643	-177.627300	-0.786234	-10.863980	 0.823307	 4.834020	 69.082300	 1.518155	 2.384659	 28.388700	-0.000001	-13.414130	 6.792423	 1.450026	-3.177856	-3.729644	-0.114296	 9.737171	 7.272546	-0.840826	-91.053280	 69.006450	-177.565200	-8.380986	 3.880338	-26.834990	 21.974300	 0.051449	-2.600368	-10.477900	-25.205570	-5.529471	-2.027600	 6.559038	 9.033609	-5.188889	 0.308190	 3.541030	-5.234859	 0.342567	 0.430617	 4.616659	 19.828250	-7.336701	 4.962825	-15.036380	 2.246165	 88.856000	 67.608880	 177.052100	 7.917156	 9.492721	 8.678967	-22.767360	-7.561555	 28.589770	 7.885983	-24.823150	 7.112757	 1.803333	 3.979147	-15.098590	 4.898592	 3.004813	-9.310344	 5.224449	 0.395017	 2.014677
-0.000933	 0.052732	 1.274259	-0.011779	 3.632748	 0.576062	 14.010780	-7.895270	 177.531000	 2.160796	-12.783110	 0.570634	 0.713099	 69.840860	-0.874160	-2.385833	 28.452750	 0.000004	-6.726872	-7.302347	-177.870900	-0.773678	-11.228300	 0.853026	 4.027302	 68.979310	 2.397893	 2.384659	 28.388700	-0.000001	-17.453670	 7.261528	 1.533462	-3.227178	-4.291005	-0.074093	 9.765419	 8.533211	-1.056509	-90.938320	 68.214400	-177.332600	-7.067003	 5.584376	-29.514710	 19.229040	 0.293043	-3.835295	-10.746370	-27.486630	-6.744130	-2.027600	 6.559038	 9.033609	-5.188889	 0.308190	 3.541030	-5.234859	 0.342567	 0.430617	 4.711634	 22.150540	-8.027571	 5.347736	-16.864830	 2.385034	 88.654040	 66.200840	 176.703000	 6.436265	 11.221900	 10.288350	-20.777180	-6.339808	 30.112910	 7.651800	-26.520230	 7.408298	 1.803333	 3.979147	-15.098590	 4.898592	 3.004813	-9.310344	 5.224449	 0.395017	 2.014677
-0.001788	 0.061385	 1.272660	 0.073188	 4.789787	 0.684902	 14.219710	-10.478990	 177.749300	 2.214424	-14.517570	 0.652644	 2.113102	 70.239780	-2.459207	-2.385833	 28.452760	 0.000004	-7.269524	-9.472952	-178.288700	-0.837399	-12.199440	 0.912178	 2.890100	 69.002640	 3.745092	 2.384659	 28.388700	-0.000001	-22.572890	 7.904766	 1.622766	-3.193043	-4.044549	 0.158135	 9.683788	 9.674562	-1.347985	-90.824600	 67.137910	-177.170000	-5.452960	 7.744289	-33.453450	 15.278370	 0.772804	-5.465559	-11.718460	-30.426900	-8.839775	-2.027600	 6.559038	 9.033609	-5.188889	 0.308190	 3.541030	-5.234859	 0.342567	 0.430617	 4.689654	 24.859180	-8.738504	 5.853909	-19.086010	 2.564887	 88.421970	 64.250850	 176.397400	 4.179779	 13.326940	 12.742550	-17.990330	-4.516774	 32.420650	 7.513715	-28.702490	 8.141201	 1.803333	 3.979147	-15.098590	 4.898592	 3.004813	-9.310344	 5.224449	 0.395017	 2.014677
-0.002680	 0.071697	 1.271840	 0.180015	 6.280373	 0.788780	 14.326770	-13.270070	 178.093700	 2.177217	-15.743090	 0.704196	 3.917434	 70.269160	-4.487557	-2.385832	 28.452790	-0.000001	-8.002160	-11.773960	-178.809500	-1.317606	-12.444340	 0.843977	 1.579636	 68.567890	 5.644956	 2.384659	 28.388700	-0.000001	-27.132620	 8.511228	 1.669032	-3.052039	-3.120417	 0.526838	 9.408500	 10.327140	-1.673586	-90.839090	 65.725590	-177.420600	-3.947243	 9.041968	-37.309140	 10.431920	 1.417203	-7.016358	-13.987770	-32.922180	-11.609770	-2.027600	 6.559038	 9.033609	-5.188889	 0.308190	 3.541030	-5.234859	 0.342567	 0.430617	 4.314578	 26.353320	-8.825732	 6.141820	-20.487770	 2.523182	 88.386690	 62.151020	 176.611800	 1.443465	 14.284400	 14.967020	-14.832120	-2.365879	 35.428890	 7.746375	-30.485290	 9.530272	 1.803333	 3.979147	-15.098590	 4.898592	 3.004813	-9.310344	 5.224449	 0.395017	 2.014677
-0.003344	 0.085188	 1.270358	 0.457459	 8.387359	 0.826816	 14.280960	-16.949930	 178.715000	 2.088824	-17.154210	 0.739373	 6.405015	 69.961380	-7.245326	-2.385833	 28.452760	 0.000004	-8.710135	-15.210670	-179.422000	-1.456896	-13.367270	 0.854077	-0.269086	 68.248600	 7.991594	 2.384659	 28.388700	-0.000001	-31.550090	 9.055202	 1.637381	-2.852981	-2.258853	 0.867676	 8.986103	 10.718890	-1.854073	-91.407940	 64.962810	-179.023300	-2.476369	 11.014550	-39.956210	 5.928591	 2.284950	-8.625655	-16.770120	-34.728970	-14.817180	-2.027600	 6.559038	 9.033609	-5.188889	 0.308190	 3.541030	-5.234859	 0.342567	 0.430617	 3.804227	 26.888900	-8.759023	 6.291921	-21.366680	 2.509406	 88.907730	 61.118210	 177.954200	-1.987980	 16.393150	 16.497190	-11.892290	 0.124142	 38.423970	 8.163126	-32.229170	 11.164360	 1.803333	 3.979147	-15.098590	 4.898592	 3.004813	-9.310344	 5.224449	 0.395017	 2.014677
